<svg xmlns="http://www.w3.org/2000/svg" width="215.047" height="120.761" viewBox="0 0 215.047 120.761">
  <g id="Group_768" data-name="Group 768" transform="translate(-196.974 -88.841)">
    <path id="Path_424" data-name="Path 424" d="M235.348,475.014a9.649,9.649,0,0,0-2.231-2.454,5.966,5.966,0,0,0-2.008-1.338,5.386,5.386,0,0,0-4.015.446,6.127,6.127,0,0,0-1.561,1.115c-1.8,1.747-2.692,2.621-5.8,6.023-1.388,1.519-3.306,2.873-7.138,5.577-1.865,1.316-1.814,1.184-6.023,4.015-4.769,3.208-5.78,4.011-6.915,5.354-1.309,1.548-2.786,3.351-2.677,5.8a6.461,6.461,0,0,0,1.338,3.569c1.466,1.907,3.565,2.387,5.8,2.9a10.4,10.4,0,0,0,5.354.223,9.71,9.71,0,0,0,4.238-2.454,14.8,14.8,0,0,0,2.231-2.9,43.506,43.506,0,0,0,2.454-4.238c1.338-2.623,1.715-3.915,2.677-4.015.422-.045.393.2,1.338.446a7.31,7.31,0,0,0,3.346,0,8.25,8.25,0,0,0,1.562-.446,8.707,8.707,0,0,0,2.9-2.008,19.783,19.783,0,0,0,4.238-5.354,12.746,12.746,0,0,0,1.785-5.354A8.15,8.15,0,0,0,235.348,475.014Zm-7.138,6.246c-.431.917-.645,1.374-.892,1.785-.074.12-.4.658-.892,1.338a14.853,14.853,0,0,1-1.115,1.338,1.916,1.916,0,0,1-.892.669.913.913,0,0,1-.669,0c-.419-.214-.439-.888-.446-1.115a2.887,2.887,0,0,1,.892-2.008c.435-.544.819-1,1.115-1.338a17.245,17.245,0,0,1,1.562-1.561,4.947,4.947,0,0,1,.669-.446c.451-.263.582-.265.669-.223.163.076.2.31.223.446A1.887,1.887,0,0,1,228.21,481.26Z" transform="translate(0 -296.909)"/>
    <path id="Path_425" data-name="Path 425" d="M352.637,444.8c-.33-1.778-.584-3.571-.892-5.354-.555-3.212-.832-4.818-.892-5.354a22.426,22.426,0,0,1,0-7.584c.312-1.51.576-1.72,1.115-4.238.261-1.216.5-2.548.669-4.015a28.011,28.011,0,0,0,.223-4.461,9.7,9.7,0,0,0-.223-2.008c-.261-1.106-.544-2.318-1.561-2.9a3.257,3.257,0,0,0-2.231-.223,5.487,5.487,0,0,0-2.008.892,13.585,13.585,0,0,0-3.792,3.123,9.468,9.468,0,0,0-1.338,2.008,12.731,12.731,0,0,0-.892,3.123c-.3,1.414-.395,2.09-.669,3.569-.112.607-.3,1.519-.669,3.346-.261,1.285-.631,3.087-1.115,5.354a33.521,33.521,0,0,1-.892,3.792,19.464,19.464,0,0,1-2.008,4.015,35.222,35.222,0,0,1-2.231,2.9c-.567.7-1.35,1.66-2.454,2.9-.355.4-1.448,1.617-2.677,3.123a7.024,7.024,0,0,0-1.115,1.785,7.118,7.118,0,0,0-.446,1.561,5.852,5.852,0,0,0,0,2.454,3.686,3.686,0,0,0,2.008,2.677,5.564,5.564,0,0,0,2.008.669,6.394,6.394,0,0,0,2.9-.223,6.277,6.277,0,0,0,2.231-1.338,10.782,10.782,0,0,0,2.454-3.569,16.994,16.994,0,0,0,1.338-3.123,25.345,25.345,0,0,0,.669-3.123c.241-1.352.216-1.508.446-2.677a18.053,18.053,0,0,1,.669-2.677c.315-.9.995-2.534,1.338-2.454.245.058.225.964.223,1.115a4.672,4.672,0,0,1-.446,1.785c-.3.741-.591,1.488-.892,2.231a19.4,19.4,0,0,0-.892,2.9,18.507,18.507,0,0,0-.669,4.238,6.7,6.7,0,0,0,.446,3.346,6.031,6.031,0,0,0,1.338,1.785,7.286,7.286,0,0,0,2.008,1.338,7.559,7.559,0,0,0,3.346.669,6.113,6.113,0,0,0,3.569-1.115,6.265,6.265,0,0,0,2.231-3.569,8.119,8.119,0,0,0,.223-1.561A19.017,19.017,0,0,0,352.637,444.8Zm-6.246-20.969c-.165,1.927-.185,2.048-.223,2.231a7.228,7.228,0,0,1-.892,2.231c-.366.6-.547.689-.669.669-.263-.04-.381-.584-.446-.892a6.681,6.681,0,0,1,0-2.231c.127-1.356.062-1.49.223-2.9.031-.263.094-.622.223-1.338a4.28,4.28,0,0,1,.446-1.338c.152-.277.277-.426.446-.446a.6.6,0,0,1,.446.223,1.782,1.782,0,0,1,.446,1.115A18.5,18.5,0,0,1,346.391,423.827Z" transform="translate(-100.558 -248.398)"/>
    <path id="Path_426" data-name="Path 426" d="M461.6,387.406a11.376,11.376,0,0,0,2.454,1.115,9.245,9.245,0,0,0,2.231.446,8.553,8.553,0,0,0,4.238-.892,10.072,10.072,0,0,0,3.569-2.9,10.942,10.942,0,0,0,2.008-4.461,14.468,14.468,0,0,0,.223-5.131c-.045-.405-.253-1.46-.669-3.569a32.8,32.8,0,0,1-.669-3.569c-.085-1.437.182-1.6.446-4.461.192-2.076.282-3.132,0-4.015a5.485,5.485,0,0,0-2.454-3.123,4.777,4.777,0,0,0-4.015-.446,5.13,5.13,0,0,0-2.677,3.346c-.542,1.517-.306,2.866,0,4.908A27.225,27.225,0,0,0,466.95,368a5.7,5.7,0,0,1,.446,2.008,4.69,4.69,0,0,1-.892,2.454c-.358.55-.575.884-.892.892s-.7-.282-1.338-1.785a17.1,17.1,0,0,1-1.115-3.792c-.284-1.564-.61-3.12-.892-4.684-.655-3.625-.654-3.432-.892-4.908-.254-1.57-.484-3.008-.669-4.908a26.809,26.809,0,0,1-.223-5.131,18.08,18.08,0,0,1,1.115-4.908c.736-1.937,1.363-3.521,2.9-4.238a2.958,2.958,0,0,1,2.231-.223,3.118,3.118,0,0,1,1.561,1.562,5.128,5.128,0,0,1,.669,3.123,8.322,8.322,0,0,1-.892,2.454,20.4,20.4,0,0,0-1.115,2.231,5.246,5.246,0,0,0,.446,3.569,5.308,5.308,0,0,0,2.454,2.454,5.632,5.632,0,0,0,4.461,0,7.372,7.372,0,0,0,3.792-4.238,10.17,10.17,0,0,0,.446-6.692c-.13-.465-.147-.381-.446-1.338a31.53,31.53,0,0,1-1.115-4.684,26.9,26.9,0,0,1-.223-4.685c.007-.676.026-1.01.223-5.577a13.632,13.632,0,0,0,0-2.454,6.026,6.026,0,0,0-2.231-4.015,5.619,5.619,0,0,0-3.792-.669c-3.071.226-5.279,1.7-7.361,3.123a33.661,33.661,0,0,0-5.131,4.461,32.721,32.721,0,0,0-4.461,5.131,22.227,22.227,0,0,0-3.123,6.246,19.479,19.479,0,0,0-.892,5.8c0,.389.02.647.223,2.677.5,5.019.573,5.123.669,6.469a62.288,62.288,0,0,1,0,6.692c-.1,3.435-.251,3.557-.223,5.8a34.651,34.651,0,0,0,.446,5.8,26.065,26.065,0,0,0,1.338,5.131,17.787,17.787,0,0,0,3.346,6.023C457.332,384.9,458.832,385.782,461.6,387.406Z" transform="translate(-196.58 -179.41)"/>
    <path id="Path_427" data-name="Path 427" d="M581.265,310.479a16.8,16.8,0,0,1-.446,2.454c-.217.817-.389,1.195-1.115,3.346-.281.831-.421,1.247-.446,1.338a7.384,7.384,0,0,0,.446,5.577,6.6,6.6,0,0,0,3.123,2.677,9.034,9.034,0,0,0,3.792.669,10.447,10.447,0,0,0,5.131-.669,7.394,7.394,0,0,0,3.792-3.569,8.081,8.081,0,0,0,.446-4.238,29.69,29.69,0,0,0-1.115-4.684c-.69-2.568-.822-2.962-1.115-4.238-.188-.818-.437-1.906-.669-3.346a35.062,35.062,0,0,1-.446-3.792c-.086-1.468.043-1.046.223-5.8.048-1.277.069-2.113.446-2.231.418-.131,1.032.7,1.339,1.115a8.232,8.232,0,0,1,1.338,2.9c.572,2.2.957,3.814,1.115,4.461.448,1.83.461,1.58,1.338,4.908.609,2.312.6,2.406.892,3.346a24.728,24.728,0,0,0,1.561,4.015,20.142,20.142,0,0,0,2.454,3.792,17.587,17.587,0,0,0,2.231,2.231,16.2,16.2,0,0,0,2.231,1.562,13.3,13.3,0,0,0,3.123,1.338,12.658,12.658,0,0,0,4.238.446,8.669,8.669,0,0,0,4.238-1.115,5.28,5.28,0,0,0,2.677-3.123,4.764,4.764,0,0,0-.223-2.677,7.217,7.217,0,0,0-1.561-2.454,32.184,32.184,0,0,0-2.677-2.677,23.968,23.968,0,0,1-3.569-4.238,21.666,21.666,0,0,1-1.785-3.569c-.9-2.111-.868-2.572-2.008-5.8-.474-1.343-1.073-3.028-2.008-5.131a27.863,27.863,0,0,0-2.008-4.015,17.139,17.139,0,0,0-4.238-4.685,16.4,16.4,0,0,0-6.469-2.9c.276-.726.718-1.824,1.339-3.123,1.622-3.392,2.7-4.44,5.577-9.146.636-1.039,1.465-2.477,3.123-5.354,1.19-2.065,2.1-3.668,3.123-5.577a33.25,33.25,0,0,0,2.008-4.015c.4-1.275,1.347-4.247,0-7.138a9.474,9.474,0,0,0-2.9-3.346,8.025,8.025,0,0,0-4.238-2.231,5.252,5.252,0,0,0-3.569.669A5.366,5.366,0,0,0,598,245.566c-1.972,6.984-5.89,24.144-6.915,24.092-.412-.021-.6-2.837-.669-3.792a35.642,35.642,0,0,1,.223-5.8c.321-3.662.43-3.284.446-4.684a12.009,12.009,0,0,0-1.115-6.023c-.494-.946-.751-1.439-1.338-1.785-2.11-1.244-5.5,1.164-6.692,2.008-1.554,1.1-4.63,3.285-5.131,7.138a10.807,10.807,0,0,0,.446,4.015c.741,3.362,1.762,4.412,2.9,7.584a22.722,22.722,0,0,1,1.561,7.138,30.008,30.008,0,0,1-1.115,8.477c-.38,1.529-.52,1.689-.892,3.346a27.129,27.129,0,0,0-.892,6.246,25.085,25.085,0,0,0,1.115,6.692c.742,2.888,1.075,2.939,1.338,4.908A21.6,21.6,0,0,1,581.265,310.479Z" transform="translate(-295.057 -118.767)"/>
    <path id="Path_428" data-name="Path 428" d="M750.25,355.752c-.277-1.4-.435-2.826-.669-4.238-.444-2.679-.357-2.951-.669-4.908a49.145,49.145,0,0,0-1.785-7.361A31.285,31.285,0,0,0,744.673,333a19.853,19.853,0,0,0-4.461-5.8,14.1,14.1,0,0,0-6.692-3.569,12.177,12.177,0,0,0-2.008-.223,16.646,16.646,0,0,0,6.023-7.807c2.112-5.929-.172-11.254-1.338-14.053a25.054,25.054,0,0,0-7.584-9.815s-5.03-4.236-10.707-5.131a6.073,6.073,0,0,0-3.792.446,4.321,4.321,0,0,0-2.231,2.454,4.255,4.255,0,0,0,0,1.785,18.3,18.3,0,0,1-.446,4.461,31.19,31.19,0,0,1-1.338,5.8,48.322,48.322,0,0,1-2.9,5.8c-2.307,4.365-2.44,4.555-2.677,5.354-.464,1.564-1.338,4.519,0,7.138a15.851,15.851,0,0,0,3.123,3.569c.868.854,1.7,1.582,2.454,2.231,1.628,1.4,2.05,1.611,2.9,2.454a18.011,18.011,0,0,1,2.677,3.569,32.294,32.294,0,0,1,2.454,4.685,38.282,38.282,0,0,1,2.008,6.692c.114.48.651,2.786,1.115,5.8.243,1.582.446,3.123.446,3.123.428,3.248.352,3.525.669,4.461a7.428,7.428,0,0,0,2.231,3.569,6.879,6.879,0,0,0,4.238,1.562,6.533,6.533,0,0,0,4.461-1.562A6.776,6.776,0,0,0,735.3,356.2a9.522,9.522,0,0,0,0-4.015c-1.035-5.334-6.447-15.813-6.692-16.284a3.944,3.944,0,0,1,1.338-.223,4.607,4.607,0,0,1,1.785.446,5.938,5.938,0,0,1,2.454,2.9,28.17,28.17,0,0,1,2.454,6.023,23.007,23.007,0,0,1,.892,7.361,11.525,11.525,0,0,0,0,3.123,8.338,8.338,0,0,0,1.785,4.015c2.692,3.183,7.007,2.721,7.361,2.677.732-.091,2.9-.359,3.569-1.785a3.148,3.148,0,0,0,.223-1.115A11.95,11.95,0,0,0,750.25,355.752Zm-23.2-43.5a4.843,4.843,0,0,1-.669,2.454,3.656,3.656,0,0,1-.892.892,4.777,4.777,0,0,1-2.454.892,4.713,4.713,0,0,1-3.346-.892,4.1,4.1,0,0,1-1.115-1.338,5.409,5.409,0,0,1-.223-3.346,23.68,23.68,0,0,1,.669-2.677c.183-.66.339-1.2.446-1.561.007-.02,0,0,.446-1.338,0,0,.223-.667.223-.669s.223-.669.223-.669c.223-.667.221-.663.223-.669.185-.564.277-.848.341-1.129.058-.248.058-.286.1-.433a1.013,1.013,0,0,1,.446-.669.883.883,0,0,1,.669,0,7.371,7.371,0,0,1,2.677,1.562,8.186,8.186,0,0,1,1.561,2.231,10.292,10.292,0,0,1,.892,4.461A22.032,22.032,0,0,1,727.051,312.253Z" transform="translate(-393.774 -153.556)"/>
    <path id="Path_429" data-name="Path 429" d="M929.339,434.566A11.036,11.036,0,0,0,928,430.1a27.771,27.771,0,0,0-2.677-4.015c-.939-1.278-1.084-1.405-2.9-3.792-1.952-2.565-2.275-3.063-2.454-3.346a25.946,25.946,0,0,1-2.008-3.792,23.235,23.235,0,0,1-1.115-3.346c-.078-.312-.21-.868-.669-3.792-.428-2.721-.35-2.456-.446-2.9a15.74,15.74,0,0,0-2.008-4.908,16.851,16.851,0,0,0-3.346-3.792c-.178-.158-1.307-1-3.569-2.677a9.293,9.293,0,0,0-1.785-1.115,5.212,5.212,0,0,0-2.677-.669,4.77,4.77,0,0,0-2.9,1.562,7.382,7.382,0,0,0-1.785,2.9,10.556,10.556,0,0,0-.669,3.792,12.9,12.9,0,0,0,.446,3.569,33.17,33.17,0,0,0,1.338,3.346c.763,1.961.854,2.008,1.562,3.792.83,2.09.756,1.943,1.338,3.569.35.979.6,1.99,1.115,4.015.4,1.579.6,2.371.669,2.9a20.85,20.85,0,0,1,0,4.461c0,.223-.366,3.567-.446,4.461-.013.158-.031.332-.058.542-.042.326-.083.493-.165,1.243-.033.294-.141,1.3-.223,3.123a19.989,19.989,0,0,0,0,4.015,5.54,5.54,0,0,0,1.115,2.677,5.9,5.9,0,0,0,2.231,1.561,7.337,7.337,0,0,0,2.231.669,7.192,7.192,0,0,0,3.569-.446,5.207,5.207,0,0,0,2.677-2.008,5.972,5.972,0,0,0,.669-3.123,10.645,10.645,0,0,0-.223-2.677,21.69,21.69,0,0,0-1.115-3.123c-.491-1.225-.582-1.37-.892-2.231a15.307,15.307,0,0,1-.669-2.454c-.25-1.367-.1-1.649,0-1.785a1.807,1.807,0,0,1,1.785-.446c1.349.314,1.847,2.117,2.008,2.677a9.9,9.9,0,0,1,.223,1.338c.033.248.163,1.269.223,2.9.022.589,0,.415,0,3.346,0,1.756.007,1.657,0,1.785a4.692,4.692,0,0,0,0,.669,4.425,4.425,0,0,0,.223,1.115,4.322,4.322,0,0,0,.446.892c.676,1.115,1.008,1.675,1.115,1.785a4.915,4.915,0,0,0,1.785,1.115,6.021,6.021,0,0,0,6.023-.669,7.317,7.317,0,0,0,2.454-2.9,8.926,8.926,0,0,0,.669-2.454A12.342,12.342,0,0,0,929.339,434.566ZM911.047,416.72c-.225,1.178-.555,1.309-.669,1.338-.417.107-.87-.419-.892-.446-.205-.243-.232-.453-.446-1.338-.071-.3-.154-.593-.223-.892-.3-1.327-.457-1.992-.669-2.677a17.829,17.829,0,0,0-.669-1.785c-.551-1.3-.892-2.008-.892-2.008a5.028,5.028,0,0,1-.446-1.115c-.067-.27-.281-1.153,0-1.338.393-.259,1.608.941,1.785,1.115a11.886,11.886,0,0,1,3.123,6.246A7.761,7.761,0,0,1,911.047,416.72Z" transform="translate(-543.863 -235.492)"/>
    <path id="Path_430" data-name="Path 430" d="M1017.986,480.227a12.279,12.279,0,0,1,.669,1.785,12.877,12.877,0,0,1,.446,2.454,25.835,25.835,0,0,1-.223,6.023c-.249,1.78-.381,1.744-.446,2.9a10.13,10.13,0,0,0,.446,4.238,5.974,5.974,0,0,0,5.577,4.461,3.646,3.646,0,0,0,4.684-3.123,6.16,6.16,0,0,0,0-2.9c-.244-1.248-.558-1.29-1.115-2.9a19.955,19.955,0,0,1-.892-4.238c-.141-1.077-.2-1.994-.223-2.677l.669.223.669.223a3.711,3.711,0,0,0,1.562.223,2.75,2.75,0,0,0,1.338-.669,3.8,3.8,0,0,0,1.339-1.562,3.9,3.9,0,0,0,.223-2.008,6.746,6.746,0,0,0-.446-1.785,14.225,14.225,0,0,0-.892-2.008,22.851,22.851,0,0,0-4.239-5.131c-1.319-1.078-2.307-1.885-3.792-2.9a48.578,48.578,0,0,0-4.462-2.677,15.059,15.059,0,0,0-3.346-1.562,5.427,5.427,0,0,0-4.015,0,4.827,4.827,0,0,0-2.231,3.123,6.222,6.222,0,0,0,.669,4.684,7.606,7.606,0,0,0,1.785,2.008,8.555,8.555,0,0,0,1.339.892C1014.183,477.938,1015.712,478.834,1017.986,480.227Z" transform="translate(-630.949 -293.199)"/>
    <path id="Path_431" data-name="Path 431" d="M1114.8,568a5.8,5.8,0,1,0,5.8,5.8A5.8,5.8,0,0,0,1114.8,568Zm-.892,6.469a1.192,1.192,0,0,0,.446.446,1.66,1.66,0,0,0,1.115.223c.361-.058.35-.183.669-.223.37-.045.95.056,1.115.446a.96.96,0,0,1-.223.892,1.928,1.928,0,0,1-1.561.446,3.369,3.369,0,0,1-2.454-.669,2.865,2.865,0,0,1-.892-2.677,3.046,3.046,0,0,1,1.562-2.008,3.319,3.319,0,0,1,2.677-.223c.3.1,1.031.359,1.115.892a.814.814,0,0,1-.223.669.974.974,0,0,1-.892.223c-.208-.047-.223-.123-.446-.223a1.688,1.688,0,0,0-1.339,0,1.412,1.412,0,0,0-.669.669A1.3,1.3,0,0,0,1113.908,574.469Z" transform="translate(-708.579 -372.272)"/>
    <path id="Path_432" data-name="Path 432" d="M418,495" transform="translate(-171.721 -315.556)"/>
    <path id="Path_433" data-name="Path 433" d="M646.657,111.407a18,18,0,0,0-.446,2.677,12.215,12.215,0,0,0,0,3.123,9.3,9.3,0,0,0,.892,2.9,4.255,4.255,0,0,0,.892,1.338,3.287,3.287,0,0,0,3.569.669,2.985,2.985,0,0,0,1.338-1.785c.379-1.3-.371-1.774-.446-3.792a9.286,9.286,0,0,1,.446-3.123,11.974,11.974,0,0,1,1.115-2.454c1.127-2.042,1.56-2.42,2.677-4.238a17.467,17.467,0,0,0,2.008-4.015,11.887,11.887,0,0,0,.669-4.015,10.057,10.057,0,0,0-.892-4.238,9.83,9.83,0,0,0-3.792-4.238,9.594,9.594,0,0,0-4.015-1.338,9.886,9.886,0,0,0-4.461.669,11.022,11.022,0,0,0-4.238,3.123,11.82,11.82,0,0,0-2.231,3.346,8.908,8.908,0,0,0-.892,4.685,4.849,4.849,0,0,0,.892,2.9,3.834,3.834,0,0,0,2.9,1.338,4.063,4.063,0,0,0,2.677-1.338,6,6,0,0,0,1.338-2.008,11.957,11.957,0,0,0,.669-2.231A9.038,9.038,0,0,1,648,96.907a2.175,2.175,0,0,1,4.015-.223,3.4,3.4,0,0,1,.446,2.231,9.051,9.051,0,0,1-1.115,3.792c-.194.382-.8,1.3-2.008,3.123a24,24,0,0,0-1.561,2.454A14.438,14.438,0,0,0,646.657,111.407Z" transform="translate(-343.272 0)"/>
  </g>
</svg>
